<svg xmlns="http://www.w3.org/2000/svg" xmlns:xlink="http://www.w3.org/1999/xlink" width="70" height="70" viewBox="0 0 70 70">
  <defs>
    <linearGradient id="linear-gradient" x1="0.5" y1="1" x2="0.5" gradientUnits="objectBoundingBox">
      <stop offset="0" stop-color="#f8a106"/>
      <stop offset="1" stop-color="#f9cd0b"/>
    </linearGradient>
    <clipPath id="clip-ico-w1">
      <rect width="70" height="70"/>
    </clipPath>
  </defs>
  <g id="ico-w1" clip-path="url(#clip-ico-w1)">
    <g id="ico-w1-2" data-name="ico-w1" transform="translate(-64 -242)">
      <g id="weather-1" transform="translate(63 238)">
        <path id="Path_76" data-name="Path 76" d="M64.25,32.25H52.93a16.89,16.89,0,0,0-1.4-5.2l9.81-5.67a1.74,1.74,0,0,0-1.74-3L49.78,24A16.8,16.8,0,0,0,46,20.22l5.67-9.82a1.74,1.74,0,0,0-3-1.74L43,18.47a16.6,16.6,0,0,0-5.2-1.39V5.75a1.75,1.75,0,0,0-3.5,0V17.08a16.6,16.6,0,0,0-5.2,1.39L23.43,8.66a1.74,1.74,0,1,0-3,1.74L26,20.22A16.8,16.8,0,0,0,22.22,24L12.4,18.36a1.74,1.74,0,0,0-1.74,3l9.81,5.67a16.89,16.89,0,0,0-1.4,5.2H7.75a1.75,1.75,0,0,0,0,3.5H19.07a16.89,16.89,0,0,0,1.4,5.2L10.66,46.6a1.74,1.74,0,1,0,1.74,3L22.22,44A16.8,16.8,0,0,0,26,47.78L20.36,57.6a1.74,1.74,0,1,0,3,1.74l5.67-9.81a16.89,16.89,0,0,0,5.2,1.4V62.25a1.75,1.75,0,0,0,3.5,0V50.93a16.89,16.89,0,0,0,5.2-1.4l5.67,9.81a1.74,1.74,0,1,0,3-1.74L46,47.78A16.8,16.8,0,0,0,49.78,44l9.82,5.67a1.74,1.74,0,0,0,1.74-3L51.53,41a16.89,16.89,0,0,0,1.4-5.2H64.25a1.75,1.75,0,0,0,0-3.5Z" fill="url(#linear-gradient)"/>
      </g>
    </g>
  </g>
</svg>
