<svg xmlns="http://www.w3.org/2000/svg" xmlns:xlink="http://www.w3.org/1999/xlink" width="70" height="70" viewBox="0 0 70 70">
  <defs>
    <linearGradient id="linear-gradient" x1="0.5" x2="0.5" y2="1" gradientUnits="objectBoundingBox">
      <stop offset="0" stop-color="#e5e5e5"/>
      <stop offset="1" stop-color="#c6c6c6"/>
    </linearGradient>
    <linearGradient id="linear-gradient-2" x1="0.559" y1="1.09" x2="0.439" y2="0.071" gradientUnits="objectBoundingBox">
      <stop offset="0" stop-color="#557df5"/>
      <stop offset="1" stop-color="#adc0fa"/>
    </linearGradient>
    <clipPath id="clip-ico-w2-night">
      <rect width="70" height="70"/>
    </clipPath>
  </defs>
  <g id="ico-w2-night" clip-path="url(#clip-ico-w2-night)">
    <g id="ico-w2-night-2" data-name="ico-w2-night" transform="translate(-135 -313)">
      <g id="weather-12-night" transform="translate(137.242 308.877)">
        <path id="Subtraction_36" data-name="Subtraction 36" d="M1901.761-3254.968h0a24.119,24.119,0,0,1-12.67-7.4,1.254,1.254,0,0,1-.2-1.413,1.244,1.244,0,0,1,1.114-.685,1.25,1.25,0,0,1,.142.008,20.839,20.839,0,0,0,2.638.168,20.727,20.727,0,0,0,18.908-12.279,20.663,20.663,0,0,0,1.7-6.452,20.691,20.691,0,0,0-.406-6.5,20.685,20.685,0,0,0-2.4-6.055,20.659,20.659,0,0,0-4.288-5.112,1.245,1.245,0,0,1-.372-1.366,1.245,1.245,0,0,1,1.151-.823,24.188,24.188,0,0,1,7.991,1.352,24.218,24.218,0,0,1,6.933,3.784,24.216,24.216,0,0,1,5.353,5.808,24.18,24.18,0,0,1,3.25,7.424,24.06,24.06,0,0,1,.289,10.464,11.188,11.188,0,0,0-1.683-.128,11.112,11.112,0,0,0-6.349,1.985,11.039,11.039,0,0,0-3.337,3.632,9.506,9.506,0,0,0-1.678-.149,9.333,9.333,0,0,0-5.646,1.892,8.579,8.579,0,0,0-3.139,4.737,7.993,7.993,0,0,0-5.124,2.218,7.022,7.022,0,0,0-2.178,4.89Z" transform="translate(-1882.76 3307)" fill="url(#linear-gradient)"/>
        <path id="Path_241" data-name="Path 241" d="M55.778,53.054c0,2.72-1.723,4.946-3.655,4.946H25.529C23.945,58,21,55.681,21,52.188a5.548,5.548,0,0,1,5.781-5.278,5.951,5.951,0,0,1,1.291.139,1.492,1.492,0,0,1,0-.185,6.809,6.809,0,0,1,7.018-6.569,7.443,7.443,0,0,1,2.767.533,9.166,9.166,0,0,1,17.767,3.261,9.344,9.344,0,0,1-1.87,5.634,4.019,4.019,0,0,1,2.025,3.331Z" fill="url(#linear-gradient-2)"/>
      </g>
    </g>
  </g>
</svg>
