<svg xmlns="http://www.w3.org/2000/svg" xmlns:xlink="http://www.w3.org/1999/xlink" width="70" height="70" viewBox="0 0 70 70">
  <defs>
    <linearGradient id="linear-gradient" x1="0.5" y1="1" x2="0.5" gradientUnits="objectBoundingBox">
      <stop offset="0" stop-color="#f8a106"/>
      <stop offset="1" stop-color="#f9cd0b"/>
    </linearGradient>
    <linearGradient id="linear-gradient-2" x1="0.559" y1="1.091" x2="0.439" y2="0.07" gradientUnits="objectBoundingBox">
      <stop offset="0" stop-color="#557df5"/>
      <stop offset="1" stop-color="#adc0fa"/>
    </linearGradient>
    <clipPath id="clip-ico-w3">
      <rect width="70" height="70"/>
    </clipPath>
  </defs>
  <g id="ico-w3" clip-path="url(#clip-ico-w3)">
    <g id="ico-w3-2" data-name="ico-w3" transform="translate(-206 -242)">
      <g id="weather-19" transform="translate(207.166 238.291)">
        <path id="Subtraction_10" data-name="Subtraction 10" d="M1814.812-3152.01a1.577,1.577,0,0,1-1.362-.786,1.56,1.56,0,0,1-.157-1.192,1.557,1.557,0,0,1,.732-.953l8.81-5.09a15.393,15.393,0,0,1-1.23-4.69h-10.2a1.572,1.572,0,0,1-1.57-1.571,1.572,1.572,0,0,1,1.57-1.57h10.18a15.289,15.289,0,0,1,1.25-4.69l-8.81-5.12a1.56,1.56,0,0,1-.732-.954,1.558,1.558,0,0,1,.157-1.191,1.576,1.576,0,0,1,1.361-.786,1.569,1.569,0,0,1,.783.211l8.84,5.1a15.061,15.061,0,0,1,3.4-3.4l-5.07-8.84a1.56,1.56,0,0,1-.157-1.192,1.56,1.56,0,0,1,.732-.954,1.567,1.567,0,0,1,.783-.21,1.578,1.578,0,0,1,1.362.786l5.09,8.81a15.316,15.316,0,0,1,4.69-1.23v-10.2a1.571,1.571,0,0,1,1.57-1.57,1.572,1.572,0,0,1,1.57,1.57v10.18a15.227,15.227,0,0,1,4.68,1.25l5.13-8.81a1.576,1.576,0,0,1,1.361-.786,1.569,1.569,0,0,1,.783.21,1.561,1.561,0,0,1,.731.954,1.56,1.56,0,0,1-.156,1.192l-5.1,8.84a15.038,15.038,0,0,1,3.4,3.4l8.86-5.071a1.57,1.57,0,0,1,.783-.21,1.578,1.578,0,0,1,1.362.785,1.573,1.573,0,0,1-.575,2.145l-2.22,1.28h-.036a15.822,15.822,0,0,0-9.032,2.822,15.9,15.9,0,0,0-5.1,5.818,13.115,13.115,0,0,0-3.057-.36h-.014a12.93,12.93,0,0,0-8.884,3.456,11.624,11.624,0,0,0-3.585,6.57h-.119a11.063,11.063,0,0,0-8.443,3.785l-3.576,2.051A1.566,1.566,0,0,1,1814.812-3152.01Z" transform="translate(-1806.834 3197.291)" fill="url(#linear-gradient)"/>
        <path id="Path_245" data-name="Path 245" d="M64.669,50.512c0,4.117-2.633,7.488-5.539,7.488H18.856C16.459,58,12,54.489,12,49.222c0-4.389,3.915-7.988,8.778-7.988a9.656,9.656,0,0,1,1.958.2v-.281c0-5.486,4.758-9.946,10.63-9.946a11.139,11.139,0,0,1,4.178.808,13.9,13.9,0,0,1,26.931,4.995,14.124,14.124,0,0,1-2.835,8.524,6.145,6.145,0,0,1,3.029,4.977Z" fill="url(#linear-gradient-2)"/>
      </g>
    </g>
  </g>
</svg>
