<svg xmlns="http://www.w3.org/2000/svg" xmlns:xlink="http://www.w3.org/1999/xlink" width="70" height="70" viewBox="0 0 70 70">
  <defs>
    <linearGradient id="linear-gradient" x1="0.5" x2="0.5" y2="1" gradientUnits="objectBoundingBox">
      <stop offset="0" stop-color="#e5e5e5"/>
      <stop offset="1" stop-color="#c6c6c6"/>
    </linearGradient>
    <linearGradient id="linear-gradient-2" x1="0.559" y1="1.091" x2="0.439" y2="0.07" gradientUnits="objectBoundingBox">
      <stop offset="0" stop-color="#557df5"/>
      <stop offset="1" stop-color="#adc0fa"/>
    </linearGradient>
    <clipPath id="clip-ico-w3-night">
      <rect width="70" height="70"/>
    </clipPath>
  </defs>
  <g id="ico-w3-night" clip-path="url(#clip-ico-w3-night)">
    <g id="ico-w3-night-2" data-name="ico-w3-night" transform="translate(-206 -313)">
      <g id="weather-19-night" transform="translate(206.964 308.877)">
        <path id="Subtraction_35" data-name="Subtraction 35" d="M1816.016-3257.191h0a24.17,24.17,0,0,1-6.647-5.176,1.254,1.254,0,0,1-.2-1.413,1.242,1.242,0,0,1,1.114-.685,1.258,1.258,0,0,1,.142.008,20.844,20.844,0,0,0,2.638.168,20.615,20.615,0,0,0,6.809-1.155,9.694,9.694,0,0,0-3.875,7.665c0,.194.005.391.016.586Zm8.025-10.249v0a20.776,20.776,0,0,0,3.592-2.843,11.366,11.366,0,0,0-.735,2.519h-.119A11.578,11.578,0,0,0,1824.041-3267.44Zm7.11-7.479h0c.3-.533.574-1.087.823-1.647a20.66,20.66,0,0,0,1.7-6.452,20.688,20.688,0,0,0-.406-6.5,20.683,20.683,0,0,0-2.4-6.055,20.664,20.664,0,0,0-4.288-5.112,1.246,1.246,0,0,1-.371-1.366,1.245,1.245,0,0,1,1.151-.823,24.188,24.188,0,0,1,7.883,1.314,24.225,24.225,0,0,1,6.862,3.683,24.222,24.222,0,0,1,5.341,5.661,24.167,24.167,0,0,1,3.32,7.248,16.022,16.022,0,0,0-3.223,1.721,15.9,15.9,0,0,0-5.1,5.817,13.2,13.2,0,0,0-3.056-.358h-.014A13.044,13.044,0,0,0,1831.151-3274.919Z" transform="translate(-1806 3307)" fill="url(#linear-gradient)"/>
        <g id="Group_44" data-name="Group 44">
          <path id="Path_249" data-name="Path 249" d="M64.669,50.512c0,4.117-2.633,7.488-5.539,7.488H18.856C16.459,58,12,54.489,12,49.222c0-4.389,3.915-7.988,8.778-7.988a9.656,9.656,0,0,1,1.958.2v-.281c0-5.486,4.758-9.946,10.63-9.946a11.139,11.139,0,0,1,4.178.808,13.9,13.9,0,0,1,26.931,4.995,14.124,14.124,0,0,1-2.835,8.524,6.145,6.145,0,0,1,3.029,4.977Z" fill="url(#linear-gradient-2)"/>
        </g>
      </g>
    </g>
  </g>
</svg>
