<svg xmlns="http://www.w3.org/2000/svg" xmlns:xlink="http://www.w3.org/1999/xlink" width="70" height="70" viewBox="0 0 70 70">
  <defs>
    <linearGradient id="linear-gradient" x1="0.5" y1="1.39" x2="0.5" y2="0.002" gradientUnits="objectBoundingBox">
      <stop offset="0" stop-color="#f8a106"/>
      <stop offset="1" stop-color="#f9cd0b"/>
    </linearGradient>
    <linearGradient id="linear-gradient-2" x1="0.559" y1="1.091" x2="0.439" y2="0.07" gradientUnits="objectBoundingBox">
      <stop offset="0" stop-color="#557df5"/>
      <stop offset="1" stop-color="#adc0fa"/>
    </linearGradient>
    <clipPath id="clip-ico-w4">
      <rect width="70" height="70"/>
    </clipPath>
  </defs>
  <g id="ico-w4" clip-path="url(#clip-ico-w4)">
    <g id="ico-w4-2" data-name="ico-w4" transform="translate(-277 -242)">
      <g id="weather-20" transform="translate(277.079 238.291)">
        <path id="Subtraction_11" data-name="Subtraction 11" d="M1732.33-3167.666a1.418,1.418,0,0,1-1.2-.671,1.4,1.4,0,0,1,0-1.478,1.42,1.42,0,0,1,1.2-.671c.04,0,.08,0,.119.005h9.45a12.87,12.87,0,0,1,1.16-4.2l-8.18-4.569a1.4,1.4,0,0,1-.54-1.9,1.471,1.471,0,0,1,1.264-.708,1.482,1.482,0,0,1,.737.2l8.2,4.569a14.3,14.3,0,0,1,3.18-3.08l-4.72-7.91a1.394,1.394,0,0,1-.18-1.058,1.378,1.378,0,0,1,.63-.871,1.477,1.477,0,0,1,.732-.195,1.47,1.47,0,0,1,1.268.715l4.72,7.91a14.4,14.4,0,0,1,4.341-1.121v-9.139a1.451,1.451,0,0,1,1.45-1.45,1.452,1.452,0,0,1,1.45,1.45v9.139a14.4,14.4,0,0,1,4.284,1.1c-.25.414-.488.847-.707,1.289a14.652,14.652,0,0,0-3.631-.455h-.016a14.452,14.452,0,0,0-9.931,3.861,13.266,13.266,0,0,0-3.051,4.238,12.69,12.69,0,0,0-.986,3.326c-.1,0-.211,0-.373-.006a12.678,12.678,0,0,0-6.342,1.68h-4.208C1732.41-3167.667,1732.37-3167.666,1732.33-3167.666Zm30.134-15.108h0l4.007-6.716a1.471,1.471,0,0,1,1.268-.715,1.482,1.482,0,0,1,.732.195,1.4,1.4,0,0,1,.675.852,1.391,1.391,0,0,1-.006.757,18.09,18.09,0,0,0-2.329,1.364A17.749,17.749,0,0,0,1762.464-3182.773Z" transform="translate(-1727 3206.25)" fill="url(#linear-gradient)"/>
        <path id="Path_252" data-name="Path 252" d="M66,49.47C66,54.16,63,58,59.69,58H13.81C11.08,58,6,54,6,48c0-5,4.46-9.1,10-9.1a11,11,0,0,1,2.23.23v-.32c0-6.25,5.42-11.33,12.11-11.33a12.69,12.69,0,0,1,4.76.92,15.83,15.83,0,0,1,30.68,5.69,16.09,16.09,0,0,1-3.23,9.71A7,7,0,0,1,66,49.47Z" fill="url(#linear-gradient-2)"/>
      </g>
    </g>
  </g>
</svg>
