<svg xmlns="http://www.w3.org/2000/svg" xmlns:xlink="http://www.w3.org/1999/xlink" width="70" height="70" viewBox="0 0 70 70">
  <defs>
    <linearGradient id="linear-gradient" x1="0.5" x2="0.5" y2="1" gradientUnits="objectBoundingBox">
      <stop offset="0" stop-color="#e5e5e5"/>
      <stop offset="1" stop-color="#c6c6c6"/>
    </linearGradient>
    <linearGradient id="linear-gradient-2" x1="0.559" y1="1.091" x2="0.439" y2="0.07" gradientUnits="objectBoundingBox">
      <stop offset="0" stop-color="#557df5"/>
      <stop offset="1" stop-color="#adc0fa"/>
    </linearGradient>
    <clipPath id="clip-ico-w4-night">
      <rect width="70" height="70"/>
    </clipPath>
  </defs>
  <g id="ico-w4-night" clip-path="url(#clip-ico-w4-night)">
    <g id="ico-w4-night-2" data-name="ico-w4-night" transform="translate(-277 -313)">
      <g id="weather-20-night" transform="translate(278.249 308.877)">
        <path id="Subtraction_34" data-name="Subtraction 34" d="M1732.24-3272.174h0a17.219,17.219,0,0,1-2.26-2.092.883.883,0,0,1-.131-1,.886.886,0,0,1,.8-.488c.028,0,.057,0,.086,0a14.772,14.772,0,0,0,1.889.122c.361,0,.729-.014,1.092-.041a10.533,10.533,0,0,0-1.469,3.49Zm12.133-8.882h0c-.129,0-.25-.005-.372-.005h-.019c.172-.213.345-.44.514-.677-.045.215-.087.444-.122.681Zm2.454-5.8h0a14.6,14.6,0,0,0-.307-7.846,14.6,14.6,0,0,0-4.4-6.62.871.871,0,0,1-.277-.97.873.873,0,0,1,.822-.58h.03a17.07,17.07,0,0,1,9.481,2.863,17.079,17.079,0,0,1,6.271,7.532h-.1a14.457,14.457,0,0,0-9.931,3.861A13.693,13.693,0,0,0,1746.827-3286.861Z" transform="translate(-1728 3317.961)" fill="url(#linear-gradient)"/>
        <path id="Path_256" data-name="Path 256" d="M66,49.47C66,54.16,63,58,59.69,58H13.81C11.08,58,6,54,6,48c0-5,4.46-9.1,10-9.1a11,11,0,0,1,2.23.23v-.32c0-6.25,5.42-11.33,12.11-11.33a12.69,12.69,0,0,1,4.76.92,15.83,15.83,0,0,1,30.68,5.69,16.09,16.09,0,0,1-3.23,9.71A7,7,0,0,1,66,49.47Z" fill="url(#linear-gradient-2)"/>
      </g>
    </g>
  </g>
</svg>
